{
  "asset": {
    "generator": "COLLADA2GLTF",
    "version": "2.0"
  },
  "scene": 0,
  "scenes": [
    {
      "nodes": [0]
    }
  ],
  "nodes": [
    {
      "children": [1, 2],
      "matrix": [
        0.01, 0.0, 0.0, 0.0, 0.0, 0.01, 0.0, 0.0, 0.0, 0.0, 0.01, 0.0, 0.0, 0.0,
        0.0, 1.0
      ]
    },
    {
      "mesh": 0,
      "name": "Microphone_Body"
    },
    {
      "mesh": 1,
      "name": "Microphone_Grill"
    }
  ],
  "cameras": [
    {
      "perspective": {
        "aspectRatio": 1.5,
        "yfov": 0.6605925559997559,
        "zfar": 10000.0,
        "znear": 1.0
      },
      "type": "perspective"
    }
  ],
  "meshes": [
    {
      "primitives": [
        {
          "attributes": {
            "POSITION": 0,
            "NORMAL": 1
          },
          "indices": 2,
          "mode": 4,
          "material": 0
        }
      ],
      "name": "Microphone_Body_Mesh"
    },
    {
      "primitives": [
        {
          "attributes": {
            "POSITION": 3,
            "NORMAL": 4
          },
          "indices": 5,
          "mode": 4,
          "material": 1
        }
      ],
      "name": "Microphone_Grill_Mesh"
    }
  ],
  "accessors": [
    {
      "bufferView": 0,
      "byteOffset": 0,
      "componentType": 5126,
      "count": 256,
      "max": [1.0, 2.0, 0.5],
      "min": [-1.0, -2.0, -0.5],
      "type": "VEC3"
    },
    {
      "bufferView": 1,
      "byteOffset": 0,
      "componentType": 5126,
      "count": 256,
      "max": [1.0, 1.0, 1.0],
      "min": [-1.0, -1.0, -1.0],
      "type": "VEC3"
    },
    {
      "bufferView": 2,
      "byteOffset": 0,
      "componentType": 5123,
      "count": 384,
      "max": [255],
      "min": [0],
      "type": "SCALAR"
    },
    {
      "bufferView": 3,
      "byteOffset": 0,
      "componentType": 5126,
      "count": 128,
      "max": [0.5, 0.5, 0.5],
      "min": [-0.5, -0.5, -0.5],
      "type": "VEC3"
    },
    {
      "bufferView": 4,
      "byteOffset": 0,
      "componentType": 5126,
      "count": 128,
      "max": [1.0, 1.0, 1.0],
      "min": [-1.0, -1.0, -1.0],
      "type": "VEC3"
    },
    {
      "bufferView": 5,
      "byteOffset": 0,
      "componentType": 5123,
      "count": 192,
      "max": [127],
      "min": [0],
      "type": "SCALAR"
    }
  ],
  "materials": [
    {
      "pbrMetallicRoughness": {
        "baseColorFactor": [0.2, 0.2, 0.2, 1.0],
        "metallicFactor": 0.0,
        "roughnessFactor": 0.8
      },
      "name": "Microphone_Body_Material"
    },
    {
      "pbrMetallicRoughness": {
        "baseColorFactor": [0.8, 0.8, 0.8, 1.0],
        "metallicFactor": 0.5,
        "roughnessFactor": 0.2
      },
      "name": "Microphone_Grill_Material"
    }
  ],
  "textures": [],
  "images": [],
  "samplers": [],
  "bufferViews": [
    {
      "buffer": 0,
      "byteOffset": 0,
      "byteLength": 3072,
      "target": 34962
    },
    {
      "buffer": 0,
      "byteOffset": 3072,
      "byteLength": 3072,
      "target": 34962
    },
    {
      "buffer": 0,
      "byteOffset": 6144,
      "byteLength": 768,
      "target": 34963
    },
    {
      "buffer": 0,
      "byteOffset": 6912,
      "byteLength": 1536,
      "target": 34962
    },
    {
      "buffer": 0,
      "byteOffset": 8448,
      "byteLength": 1536,
      "target": 34962
    },
    {
      "buffer": 0,
      "byteOffset": 9984,
      "byteLength": 384,
      "target": 34963
    }
  ],
  "buffers": [
    {
      "byteLength": 10368,
      "uri": "Microphone.bin"
    }
  ]
}
